# AST/ASF file generated using VICON BodyLanguage
# -----------------------------------------------
:version 1.10
:name VICON
:units
  mass 1.0
  length 0.45
  angle deg
:documentation
   .ast/.asf automatically generated from VICON data using
   VICON BodyBuilder and BodyLanguage model FoxedUp or BRILLIANT.MOD
:root
   order TX TY TZ RX RY RZ
   axis XYZ
   position 0 0 0  
   orientation 0 0 0 
:bonedata
  begin
     id 1 
     name lhipjoint
     direction 0.645893 -0.654526 0.392961 
     length 2.38111 
     axis 0 0 0  XYZ
  end
  begin
     id 2 
     name lfemur
     direction 0.34202 -0.939693 0  
     length 6.6822  
     axis 0 0 20  XYZ
    dof rx ry rz
    limits (-160.0 20.0)
           (-70.0 70.0)
           (-60.0 70.0)
  end
  begin
     id 3 
     name ltibia
     direction 0.34202 -0.939693 0   
     length 6.93904   
     axis 0 0 20   XYZ
    dof rx
    limits (-10.0 170.0)
  end
  begin
     id 4 
     name lfoot
     direction 0.0694967 -0.190941 0.979138   
     length 2.13616   
     axis -90 7.62852e-016 20   XYZ
    dof rx rz
    limits (-45.0 90.0)
           (-70.0 20.0)
  end
  begin
     id 5 
     name ltoes
     direction 1.535e-011 -4.2202e-011 1   
     length 1.07536   
     axis -90 7.62852e-016 20   XYZ
    dof rx
    limits (-90.0 20.0)
  end
  begin
     id 6 
     name rhipjoint
     direction -0.700219 -0.612087 0.367481   
     length 2.54621  
     axis 0 0 0  XYZ 
  end
  begin
     id 7 
     name rfemur
     direction -0.34202 -0.939693 0   
     length 6.55353   
     axis 0 0 -20   XYZ
    dof rx ry rz
    limits (-160.0 20.0)
           (-70.0 70.0)
           (-70.0 60.0)
  end
  begin
     id 8 
     name rtibia
     direction -0.34202 -0.939693 0   
     length 6.8736   
     axis 0 0 -20   XYZ
    dof rx
    limits (-10.0 170.0)
 end
 begin
     id 9 
     name rfoot
     direction -0.0679995 -0.186827 0.980037   
     length 2.1218  
     axis -90 -7.62852e-016 -20   XYZ
    dof rx rz
    limits (-45.0 90.0)
           (-20.0 70.0)
  end
  begin
     id 10 
     name rtoes
     direction -1.53589e-011 -4.21772e-011 1   
     length 1.06864   
     axis -90 -7.62852e-016 -20   XYZ
    dof rx
    limits (-90.0 20.0)
  end
  begin
     id 11 
     name lowerback
     direction -0.0416607 0.996347 -0.0745409   
     length 2.12205   
     axis 0 0 0   XYZ
    dof rx ry rz
    limits (-20.0 45.0)
           (-30.0 30.0)
           (-30.0 30.0)
  end
  begin
     id 12 
     name upperback
     direction -0.000153993 0.999276 -0.0380568   
     length 2.12759   
     axis 0 0 0   XYZ
    dof rx ry rz
    limits (-20.0 45.0)
           (-30.0 30.0)
           (-30.0 30.0)
  end
  begin
     id 13 
     name thorax
     direction 0.0187671 0.999821 -0.00241421   
     length 2.13704   
     axis 0 0 0   XYZ
    dof rx ry rz
    limits (-20.0 45.0)
           (-30.0 30.0)
           (-30.0 30.0)
  end
  begin
     id 14 
     name lowerneck
     direction 0.0268157 0.964865 0.261374   
     length 1.65253   
     axis 0 0 0   XYZ
    dof rx ry rz
    limits (-20.0 45.0)
           (-30.0 30.0)
           (-30.0 30.0)
  end
  begin
     id 15 
     name upperneck
     direction 0.00263774 0.939908 -0.341418   
     length 1.72375   
     axis 0 0 0   XYZ
    dof rx ry rz
    limits (-20.0 45.0)
           (-30.0 30.0)
           (-30.0 30.0)
  end
  begin
     id 16
     name head
     direction -0.00526001 0.989001 -0.147818  
     length 1.74878  
     axis 0 0 0   XYZ
    dof rx ry rz
    limits (-20.0 45.0)
           (-30.0 30.0)
           (-30.0 30.0)
  end
  begin
     id 17 
     name lclavicle
     direction 0.881214 0.461162 -0.103884  
     length 3.25108  
     axis 0 0 0   XYZ
    dof ry rz
    limits (-20.0 10.0)
           (0.0 20.0)
  end
  begin
     id 18 
     name lhumerus
     direction 1 -4.4899e-011 3.38092e-027   
     length 4.87408   
     axis 180 -30 -90   XYZ
    dof rx ry rz
    limits (-60.0 90.0)
           (-90.0 90.0)
           (-90.0 90.0)
  end
  begin
     id 19
     name lradius
     direction 1 -4.48931e-011 9.96288e-027   
     length 2.76729   
     axis 180 -30 -90   XYZ
    dof rx
    limits (-10.0 170.0)
  end
  begin
     id 20
     name lwrist
     direction 1 -4.4896e-011 1.50617e-026   
     length 1.38364   
     axis -9.31234e-015 90 90   XYZ
    dof ry
    limits (-180.0 0.0)
 end
  begin
     id 21 
     name lhand
     direction 1 -4.49038e-011 3.01286e-026   
     length 0.98922   
     axis -1.92217e-014 90 90   XYZ
    dof rx rz
    limits (-90.0 90.0)
           (-45.0 45.0)
  end
  begin
     id 22 
     name lfingers
     direction 1 -4.49051e-011 6.02588e-026   
     length 0.797535   
     axis -3.84436e-014 90 90   XYZ
    dof rx
    limits (0.0 90.0)
  end
  begin
     id 23
     name lthumb
     direction 0.707107 -6.34901e-011 0.707107   
     length 1.14511   
     axis -90 45 2.19363e-014   XYZ
    dof rx rz
    limits (-45.0 45.0)
           (-45.0 45.0)
  end
  begin
     id 24 
     name rclavicle
     direction -0.893894 0.441652 -0.0767889   
     length 3.29361  
     axis 0 0 0   XYZ 
    dof ry rz
    limits (-10.0 20.0)
           (-20.0 0.0)
  end
  begin
     id 25 
     name rhumerus
     direction -1 -4.48945e-011 8.0491e-028  
     length 4.71404   
     axis 180 30 90   XYZ
    dof rx ry rz
    limits (-90.0 60.0)
           (-90.0 90.0)
           (-90.0 90.0)
  end
  begin
     id 26 
     name rradius
     direction -1 -4.48986e-011 9.27795e-027   
     length 2.83468   
     axis 180 30 90   XYZ
    dof rx
    limits (-10.0 170.0)
  end
  begin
     id 27 
     name rwrist
     direction -1 -4.49029e-011 1.5064e-026   
     length 1.41734   
     axis -9.31234e-015 -90 -90   XYZ
    dof ry
    limits (-180.0 0.0)
  end
  begin
     id 28
     name rhand
     direction -1 -4.48857e-011 3.01165e-026   
     length 0.868195   
     axis -1.92217e-014 -90 -90   XYZ
    dof rx rz
    limits (-90.0 90.0)
           (-45.0 45.0)
  end
  begin
     id 29
     name rfingers
     direction -1 -4.49048e-011 6.02585e-026   
     length 0.699961   
     axis -3.84436e-014 -90 -90   XYZ
    dof rx
    limits (0.0 90.0)
  end
  begin
     id 30
     name rthumb
     direction -0.707107 -6.34854e-011 0.707107   
     length 1.00501   
     axis -90 -45 -2.19363e-014   XYZ
    dof rx rz
    limits (-45.0 45.0)
           (-45.0 45.0)
  end
:hierarchy
  begin
    root lhipjoint rhipjoint lowerback
    lhipjoint lfemur
    lfemur ltibia
    ltibia lfoot
    lfoot ltoes
    rhipjoint rfemur
    rfemur rtibia
    rtibia rfoot
    rfoot rtoes
    lowerback upperback
    upperback thorax
    thorax lowerneck lclavicle rclavicle
    lowerneck upperneck
    upperneck head
    lclavicle lhumerus
    lhumerus lradius
    lradius lwrist
    lwrist lhand lthumb
    lhand lfingers
    rclavicle rhumerus
    rhumerus rradius
    rradius rwrist
    rwrist rhand rthumb
    rhand rfingers
  end

#!OML:ASF H:\ManfredObstacles\Project 1\Capture day 2\Session 1\male.ASF
:FULLY-SPECIFIED
:DEGREES
65
root -11.4195 15.4802 6.88137 -173.21 5.38311 168.097
lowerback -1.34135 -3.28611 -5.55653
upperback 1.08308 -4.16457 -1.28124
thorax 2.17158 -2.11668 1.63979
lowerneck -33.2051 -1.72474 1.02951
upperneck 42.1484 0.800626 -2.37435
head 24.7493 0.994651 -0.940951
rclavicle 3.69739e-014 1.59028e-015
rhumerus -63.5247 1.21562 -75.3298
rradius 52.8515
rwrist 12.6426
rhand -12.1979 -4.09418
rfingers 7.12502
rthumb 13.8662 -33.6119
lclavicle 3.69739e-014 1.59028e-015
lhumerus -47.7666 -22.3097 97.1897
lradius 92.4316
lwrist -22.4378
lhand -16.4957 4.88173
lfingers 7.12502
lthumb 9.72192 34.6374
rfemur -34.1694 -1.64354 25.5517
rtibia 45.9691
rfoot -10.2544 -18.7104
rtoes -9.02
lfemur -3.88417 1.19732 -23.3318
ltibia 61.1883
lfoot 32.3936 3.87346
ltoes 7.91864
66
root -11.3639 15.3641 6.58008 -173.594 6.39849 168.748
lowerback -0.780287 -2.93317 -4.85228
upperback 1.265 -3.75161 -1.12733
thorax 1.97716 -1.90624 1.45167
lowerneck -33.5774 -1.6982 1.00021
upperneck 41.8523 0.662777 -2.30517
head 24.5957 0.906243 -0.951907
rclavicle -2.78299e-014 3.97569e-015
rhumerus -61.3603 1.71533 -76.097
rradius 53.0123
rwrist 12.6981
rhand -12.6082 -4.35816
rfingers 7.12502
rthumb 13.4708 -33.9025
lclavicle -2.78299e-014 3.97569e-015
lhumerus -48.2177 -21.5569 97.0628
lradius 91.5518
lwrist -21.9971
lhand -16.518 5.3182
lfingers 7.12502
lthumb 9.70045 35.0748
rfemur -32.8518 -1.20246 26.4804
rtibia 46.9191
rfoot -12.3132 -18.737
rtoes -9.2422
lfemur -5.72611 1.64113 -22.5593
ltibia 65.2183
lfoot 31.2762 4.53112
ltoes 7.83837
67
root -11.3072 15.2539 6.2855 -173.916 7.41117 169.401
lowerback -0.213409 -2.60441 -4.14713
upperback 1.43897 -3.35942 -0.968305
thorax 1.78021 -1.70441 1.26017
lowerneck -33.7815 -1.68134 0.925109
upperneck 41.5271 0.525602 -2.18351
head 24.3513 0.820137 -0.920513
rclavicle 4.53229e-014 -4.77083e-015
rhumerus -59.0778 2.30105 -76.8797
rradius 53.2615
rwrist 12.9257
rhand -13.0553 -4.56538
rfingers 7.12502
rthumb 13.0399 -34.1378
lclavicle 4.53229e-014 -4.77083e-015
lhumerus -48.6939 -20.7999 96.8751
lradius 90.696
lwrist -21.4501
lhand -16.4741 5.98232
lfingers 7.12502
lthumb 9.74274 35.737
rfemur -31.5083 -0.75548 27.4273
rtibia 47.7045
rfoot -14.0736 -18.9132
rtoes -9.55065
lfemur -7.7311 2.01678 -21.7816
ltibia 69.2213
lfoot 30.1602 5.10176
ltoes 7.73413
68
root -11.2481 15.1522 5.99635 -174.134 8.44726 170.051
lowerback 0.304769 -2.29296 -3.43751
upperback 1.58944 -2.97717 -0.817133
thorax 1.59347 -1.50608 1.04896
lowerneck -33.9699 -1.67743 0.829604
upperneck 41.2242 0.381889 -2.03536
head 24.128 0.735791 -0.871582
rclavicle -4.79071e-014 7.15625e-015
rhumerus -56.7323 2.98662 -77.6941
rradius 53.6554
rwrist 13.3089
rhand -13.5107 -4.73054
rfingers 7.12502
rthumb 12.6008 -34.3305
lclavicle -4.79071e-014 7.15625e-015
lhumerus -49.2069 -20.0761 96.6119
lradius 89.8947
lwrist -20.8303
lhand -16.4151 6.8217
lfingers 7.12502
lthumb 9.79966 36.5737
rfemur -30.1918 -0.259688 28.3855
rtibia 48.3494
rfoot -15.6182 -19.2087
rtoes -9.86366
lfemur -9.93003 2.34558 -21.0092
ltibia 73.1431
lfoot 29.0525 5.63975
ltoes 7.55517
69
root -11.1859 15.0601 5.71221 -174.246 9.54027 170.657
lowerback 0.770107 -1.98671 -2.78187
upperback 1.69984 -2.59047 -0.68558
thorax 1.40407 -1.30494 0.840038
lowerneck -34.1562 -1.65773 0.753436
upperneck 40.9224 0.265313 -1.90155
head 23.912 0.663731 -0.826566
rclavicle -1.92821e-014 -2.70347e-014
rhumerus -54.3774 3.79964 -78.5462
rradius 54.2374
rwrist 13.7812
rhand -13.9331 -4.86733
rfingers 7.12502
rthumb 12.1936 -34.4919
lclavicle -1.92821e-014 -2.70347e-014
lhumerus -49.8057 -19.3826 96.293
lradius 89.2113
lwrist -20.2492
lhand -16.3227 7.78221
lfingers 7.12502
lthumb 9.88878 37.53
rfemur -28.9208 0.318661 29.3057
rtibia 48.8717
rfoot -16.9906 -19.5566
rtoes -10.0601
lfemur -12.3158 2.65297 -20.2911
ltibia 76.9254
lfoot 27.9764 6.14963
ltoes 7.30775
70
root -11.12 14.9797 5.43175 -174.241 10.7097 171.193
lowerback 1.14931 -1.67154 -2.20793
upperback 1.76662 -2.18243 -0.589205
thorax 1.22654 -1.09368 0.63281
lowerneck -34.3342 -1.63382 0.713595
upperneck 40.6472 0.161378 -1.79779
head 23.7226 0.602091 -0.801172
rclavicle 1.76918e-014 1.98785e-014
rhumerus -52.0514 4.74048 -79.4395
rradius 55.0247
rwrist 14.2509
rhand -14.2869 -4.9508
rfingers 7.12502
rthumb 11.8524 -34.5954
lclavicle 1.76918e-014 1.98785e-014
lhumerus -50.4921 -18.7541 95.9114
lradius 88.6896
lwrist -19.7613
lhand -16.1505 8.74513
lfingers 7.12502
lthumb 10.055 38.4849
rfemur -27.6988 1.00443 30.1339
rtibia 49.2668
rfoot -18.1875 -19.8984
rtoes -10.3164
lfemur -14.8891 2.94768 -19.668
ltibia 80.5081
lfoot 26.9445 6.66104
ltoes 7.01476
71
root -11.0506 14.9132 5.15276 -174.141 11.9643 171.62
lowerback 1.43944 -1.33701 -1.75772
upperback 1.78821 -1.74273 -0.539809
thorax 1.06123 -0.868057 0.439731
lowerneck -34.524 -1.61934 0.698011
upperneck 40.4226 0.0525226 -1.71098
head 23.5859 0.545766 -0.790674
rclavicle -1.59028e-014 2.46493e-014
rhumerus -49.8105 5.82433 -80.3655
rradius 56.0326
rwrist 14.6279
rhand -14.5674 -4.98332
rfingers 7.12502
rthumb 11.5819 -34.6433
lclavicle -1.59028e-014 2.46493e-014
lhumerus -51.2765 -18.197 95.4878
lradius 88.3499
lwrist -19.4068
lhand -15.9794 9.5961
lfingers 7.12502
lthumb 10.2201 39.3278
rfemur -26.4962 1.77664 30.8006
rtibia 49.5205
rfoot -19.2074 -20.1507
rtoes -10.6832
lfemur -17.6051 3.22207 -19.1941
ltibia 83.8235
lfoot 25.975 7.22056
ltoes 6.7421
72
root -10.9778 14.862 4.87402 -173.994 13.286 171.916
lowerback 1.66737 -0.983834 -1.45164
upperback 1.77618 -1.27549 -0.54156
thorax 0.904289 -0.630378 0.269541
lowerneck -34.7174 -1.60899 0.713889
upperneck 40.2587 -0.0509177 -1.64873
head 23.5059 0.499229 -0.797159
rclavicle 1.90833e-014 -1.27222e-014
rhumerus -47.6993 7.03632 -81.2947
rradius 57.2617
rwrist 14.8421
rhand -14.7754 -4.93498
rfingers 7.12502
rthumb 11.3813 -34.6061
lclavicle 1.90833e-014 -1.27222e-014
lhumerus -52.1583 -17.7227 95.043
lradius 88.2072
lwrist -19.1281
lhand -15.8053 10.2101
lfingers 7.12502
lthumb 10.388 39.9335
rfemur -25.2623 2.59293 31.2625
rtibia 49.6076
rfoot -20.0559 -20.2556
rtoes -11.1468
lfemur -20.3994 3.44786 -18.8973
ltibia 86.8156
lfoot 25.0574 7.86474
ltoes 6.54956
73
root -10.901 14.8282 4.59465 -173.82 14.6555 172.059
lowerback 1.84176 -0.608228 -1.31787
upperback 1.73079 -0.778297 -0.591599
thorax 0.74974 -0.379658 0.141923
lowerneck -34.8985 -1.63396 0.716914
upperneck 40.1641 -0.183491 -1.58058
head 23.4822 0.448239 -0.805161
rclavicle 1.19271e-015 1.03368e-014
rhumerus -45.7579 8.36807 -82.2007
rradius 58.7121
rwrist 14.8013
rhand -14.9188 -4.86008
rfingers 7.12502
rthumb 11.2431 -34.5388
lclavicle 1.19271e-015 1.03368e-014
lhumerus -53.127 -17.3352 94.5893
lradius 88.2531
lwrist -19.0127
lhand -15.6873 10.5554
lfingers 7.12502
lthumb 10.5018 40.2731
rfemur -23.9852 3.41156 31.492
rtibia 49.5044
rfoot -20.6668 -20.1977
rtoes -11.8333
lfemur -23.2376 3.60173 -18.7923
ltibia 89.4328
lfoot 24.1825 8.58038
ltoes 6.39222
